/* XPM */
static char * server_connect_xpm[] = {
"32 32 300 2",
"  	c None",
". 	c #231F20",
"+ 	c #231C1D",
"@ 	c #231E1F",
"# 	c #193F41",
"$ 	c #135558",
"% 	c #105E62",
"& 	c #105C60",
"* 	c #144F52",
"= 	c #1B3638",
"- 	c #241A1B",
"; 	c #1E3032",
"> 	c #0A7176",
", 	c #009AA2",
"' 	c #009AA3",
") 	c #00969F",
"! 	c #00949B",
"~ 	c #00939A",
"{ 	c #009299",
"] 	c #00949A",
"^ 	c #008E94",
"/ 	c #212325",
"( 	c #231B1C",
"_ 	c #049FAA",
": 	c #0CA5B3",
"< 	c #09A8B9",
"[ 	c #01A4B3",
"} 	c #00A1AE",
"| 	c #009CA6",
"1 	c #00959D",
"2 	c #009198",
"3 	c #009096",
"4 	c #008F94",
"5 	c #009095",
"6 	c #154A4D",
"7 	c #241B1C",
"8 	c #221F20",
"9 	c #038087",
"0 	c #21A7B5",
"a 	c #25B0C2",
"b 	c #0FABBB",
"c 	c #07A7B6",
"d 	c #00A3B1",
"e 	c #00A0AC",
"f 	c #009CA7",
"g 	c #0097A0",
"h 	c #0C6467",
"i 	c #037F86",
"j 	c #38ACBC",
"k 	c #38B2C4",
"l 	c #1DADBF",
"m 	c #0EAABA",
"n 	c #05A6B6",
"o 	c #00A2B0",
"p 	c #009EAB",
"q 	c #009BA5",
"r 	c #00969D",
"s 	c #00949C",
"t 	c #009298",
"u 	c #009196",
"v 	c #0E5F62",
"w 	c #231D1E",
"x 	c #32A9B8",
"y 	c #4BB5C7",
"z 	c #32B1C2",
"A 	c #19ADBE",
"B 	c #0CAABA",
"C 	c #04A5B4",
"D 	c #00A1AF",
"E 	c #009FAA",
"F 	c #00969E",
"G 	c #00979D",
"H 	c #00979A",
"I 	c #009698",
"J 	c #009596",
"K 	c #009494",
"L 	c #009496",
"M 	c #184041",
"N 	c #1F2B2C",
"O 	c #0BA0AA",
"P 	c #5CB8CC",
"Q 	c #46B3C6",
"R 	c #2FB1C2",
"S 	c #14ADBD",
"T 	c #0BA8B8",
"U 	c #01A5B4",
"V 	c #009DA9",
"W 	c #0099A3",
"X 	c #00989E",
"Y 	c #00999E",
"Z 	c #00989D",
"` 	c #00999C",
" .	c #009D99",
"..	c #009C97",
"+.	c #009996",
"@.	c #009794",
"#.	c #01908D",
"$.	c #0B696E",
"%.	c #3DACBC",
"&.	c #56B6C9",
"*.	c #41B3C5",
"=.	c #29B0C1",
"-.	c #11ABBC",
";.	c #09A8B8",
">.	c #01A4B2",
",.	c #00A1AD",
"'.	c #009EA7",
").	c #009DA2",
"!.	c #009D9E",
"~.	c #009B9D",
"{.	c #009A9C",
"].	c #009B9B",
"^.	c #009C9B",
"/.	c #00A199",
"(.	c #00A097",
"_.	c #009E96",
":.	c #009C95",
"<.	c #5AB7CA",
"[.	c #54B6C8",
"}.	c #3CB3C4",
"|.	c #24AFC0",
"1.	c #10ABBB",
"2.	c #07A7B7",
"3.	c #00A3B2",
"4.	c #00A0AB",
"5.	c #00A0A7",
"6.	c #009FA1",
"7.	c #00A19D",
"8.	c #009C9A",
"9.	c #009D9A",
"0.	c #009E9A",
"a.	c #00A099",
"b.	c #00A697",
"c.	c #00A496",
"d.	c #00A294",
"e.	c #07847B",
"f.	c #1C3639",
"g.	c #059CA5",
"h.	c #5DB8CC",
"i.	c #4FB6C8",
"j.	c #1EAEBF",
"k.	c #0EAABB",
"l.	c #06A6B6",
"m.	c #00A3B0",
"n.	c #00A2AB",
"o.	c #00A2A5",
"p.	c #00A29F",
"q.	c #00A09B",
"r.	c #009E99",
"s.	c #009F9A",
"t.	c #009F99",
"u.	c #00A798",
"v.	c #00A897",
"w.	c #00A695",
"x.	c #00AA99",
"y.	c #154D50",
"z.	c #0298A1",
"A.	c #5EB8CC",
"B.	c #4BB4C6",
"C.	c #34B1C3",
"D.	c #1AADBF",
"E.	c #0DA9B9",
"F.	c #05A6B5",
"G.	c #00A5AF",
"H.	c #00A4A9",
"I.	c #00A4A3",
"J.	c #00A39D",
"K.	c #00A298",
"L.	c #00A398",
"M.	c #00AD98",
"N.	c #00AB97",
"O.	c #00AD9A",
"P.	c #1E312F",
"Q.	c #13575B",
"R.	c #4EB3C4",
"S.	c #46B4C6",
"T.	c #30B1C2",
"U.	c #15ACBD",
"V.	c #0BA9B9",
"W.	c #03A7B4",
"X.	c #00A7AD",
"Y.	c #00A6A7",
"Z.	c #00A4A0",
"`.	c #00A198",
" +	c #00A397",
".+	c #00A396",
"++	c #01A596",
"@+	c #01A595",
"#+	c #01A496",
"$+	c #00AC96",
"%+	c #00AD97",
"&+	c #00B09A",
"*+	c #1B3D3A",
"=+	c #135559",
"-+	c #109BA6",
";+	c #44B4C6",
">+	c #2AB0C1",
",+	c #12ACBD",
"'+	c #0AA9B8",
")+	c #01A8B2",
"!+	c #00A8AC",
"~+	c #00A1A1",
"{+	c #02A695",
"]+	c #01A795",
"^+	c #01A895",
"/+	c #01AA95",
"(+	c #00B097",
"_+	c #00B39B",
":+	c #1C3B37",
"<+	c #0098A0",
"[+	c #0598A1",
"}+	c #16A4B1",
"|+	c #0CA6B4",
"1+	c #06A4AE",
"2+	c #00A0A5",
"3+	c #009B9C",
"4+	c #00A098",
"5+	c #01A695",
"6+	c #01A794",
"7+	c #02A994",
"8+	c #03A993",
"9+	c #03AA94",
"0+	c #02A894",
"a+	c #01B196",
"b+	c #00B79C",
"c+	c #202B2A",
"d+	c #1F2D2E",
"e+	c #009BA3",
"f+	c #00999B",
"g+	c #02AA93",
"h+	c #03AB93",
"i+	c #04AC92",
"j+	c #04AD92",
"k+	c #02B093",
"l+	c #01B095",
"m+	c #241719",
"n+	c #241919",
"o+	c #028D94",
"p+	c #009A9B",
"q+	c #02A993",
"r+	c #03AB92",
"s+	c #03AD92",
"t+	c #04AE91",
"u+	c #05AF91",
"v+	c #05AE91",
"w+	c #03AD91",
"x+	c #02B091",
"y+	c #0D816E",
"z+	c #00959E",
"A+	c #00979E",
"B+	c #05AE90",
"C+	c #0AB090",
"D+	c #0CB290",
"E+	c #0BB190",
"F+	c #07AF90",
"G+	c #01B594",
"H+	c #1B3F39",
"I+	c #00939B",
"J+	c #00989C",
"K+	c #09B090",
"L+	c #0EB28E",
"M+	c #11B38D",
"N+	c #0FB28E",
"O+	c #0A9379",
"P+	c #24191B",
"Q+	c #03A994",
"R+	c #03AC93",
"S+	c #0AB190",
"T+	c #10B38E",
"U+	c #14B68D",
"V+	c #0BB491",
"W+	c #202A29",
"X+	c #0099A1",
"Y+	c #08B090",
"Z+	c #0DB28F",
"`+	c #0DB892",
" @	c #241B1B",
".@	c #009CA3",
"+@	c #08AF90",
"@@	c #09B392",
"#@	c #231D1D",
"$@	c #038D91",
"%@	c #009C9E",
"&@	c #03AA93",
"*@	c #02B296",
"=@	c #0B8D78",
"-@	c #202A28",
";@	c #097A7A",
">@	c #00A09C",
",@	c #00A59F",
"'@	c #00A69C",
")@	c #00A79B",
"!@	c #00AC9B",
"~@	c #02A491",
"{@	c #0E796B",
"]@	c #24191A",
"^@	c #1F2B2B",
"/@	c #1C3736",
"(@	c #1C3534",
"_@	c #212626",
"                                                      . . . . . ",
"                                                      . . . . . ",
"                                                    . . . . . . ",
"                                                  . . . . . . . ",
"                                                . . . . . .   . ",
"                                              . . . . . .   .   ",
"                                            . . . . . .   .     ",
"                + @ # $ % & * = -         . . . . . .   .       ",
"            + ; > , ' ) ! ~ { ] ^   /   . . . . . .   .         ",
"          (   _ : < [ } | 1 ~ 2 3 4 5 6 7 8 . . .   .           ",
"        8 9 0 a b c d e f g ! ~ 2 3 ^ 5 h - . .   .             ",
"      7 i j k l m n o p q g r s ~ t u 4 4 v (   .               ",
"    w   x y z A B C D E q ) r F G H I J K L M @                 ",
"    N O P Q R S T U } V W X Y Z ` `  ...+.@.#.(                 ",
"    $.%.&.*.=.-.;.>.,.'.).!.~.{.].].^./.(._.:.                  ",
"  - r <.[.}.|.1.2.3.4.5.6.7.].8.8.9.0.a.b.c.d.e.7               ",
"  f.g.h.i.k j.k.l.m.n.o.p.q.8.r.s.t.a.a.u.v.w.x.7               ",
"  y.z.A.B.C.D.E.F.G.H.I.J.9.t.t./.K.K.K.L.M.N.O.P.              ",
"  Q.s R.S.T.U.V.W.X.Y.Z. .t.`.K. +.+++@+#+$+%+&+*+              ",
"  =+F -+;+>+,+'+)+!+~+9.t.`.K..+++{+]+^+]+/+(+_+:+              ",
"    <+1 [+}+|+1+2+3+8.s.4+K.c.5+6+7+8+9+9+0+a+b+c+              ",
"  d+e+F F 1 1 Z f+].9.t.K..+5+0+g+h+i+j+i+h+k+l+m+              ",
"  n+o+F F F r Z p+^.0.4+ +@+]+q+r+s+t+u+v+w+x+y+                ",
"      F F z+A+` ].^.s./. +5+0+h+j+B+C+D+E+F+G+H+                ",
"    @ I+1 z+A+J+].9.t.K.c.{+7+h+t+K+L+M+N+C+O+P+                ",
"        , z+A+J+].9.t.K.c.]+Q+R+t+S+T+U+M+V+W+                  ",
"      +   X+A+J+].9.t.K. +{+7+h+t+Y+Z+T+`+                      ",
"         @  .@J+].^.s.`. +5+0+g+i+t++@@@                        ",
"          #@  $@%@8.r.4+K.c.{+0+&@*@=@-@                        ",
"              -   ;@>@,@'@)@!@~@{@:+P+                          ",
"                  ( ]@^@/@(@_@m+                                ",
"                                                                "};
